<svg width="250" height="317" viewBox="0 0 250 317" fill="none" xmlns="http://www.w3.org/2000/svg">
<rect x="67" y="276" width="115" height="40" rx="10" fill="#D9D9D9"/>
<mask id="mask0_233_16" style="mask-type:luminance" maskUnits="userSpaceOnUse" x="86" y="86" width="78" height="78">
<path d="M86.79 86.0938H163.2V163.555H86.79V86.0938Z" fill="white"/>
</mask>
<g mask="url(#mask0_233_16)">
<path d="M163.189 86.0936H86.8016L93.5415 155.401L124.995 163.554L156.449 155.401L163.189 86.0936Z" fill="#0277BD"/>
</g>
<path d="M124.996 92.2104V157.237L150.159 150.714L155.776 92.2104H124.996Z" fill="#039BE5"/>
<path d="M145.441 102.402H124.996V110.556H136.005L135.331 118.71H124.996V126.864H134.881L134.207 136.037L124.996 138.89V147.452L142.745 142.152L144.317 118.71L145.441 102.402Z" fill="white"/>
<path d="M124.996 102.402V110.556H105.001L104.326 102.402H124.996ZM114.661 118.71L115.111 126.864H124.996V118.71H114.661ZM115.56 130.94H106.573L107.247 142.152L124.996 147.452V138.89L115.785 136.037L115.56 130.94Z" fill="#EEEEEE"/>
<path d="M225 125C225 144.778 219.135 164.112 208.147 180.557C197.159 197.002 181.541 209.819 163.268 217.388C144.996 224.957 124.889 226.937 105.491 223.079C86.093 219.22 68.2747 209.696 54.2894 195.711C40.3042 181.726 30.7801 163.907 26.9215 144.509C23.063 125.111 25.0433 105.004 32.612 86.7318C40.1807 68.4592 52.9979 52.8413 69.4428 41.8532C85.8877 30.865 105.222 25.0001 125 25" stroke="#039BE5" stroke-width="50"/>
<path d="M125 25C144.778 25 164.112 30.8649 180.557 41.853C197.002 52.8412 209.819 68.459 217.388 86.7316C224.957 105.004 226.937 125.111 223.079 144.509C219.22 163.907 209.696 181.725 195.711 195.711C181.725 209.696 163.907 219.22 144.509 223.078C125.111 226.937 105.004 224.957 86.7317 217.388C68.4591 209.819 52.8412 197.002 41.8531 180.557C30.8649 164.112 25 144.778 25 125" stroke="#0D3182" stroke-width="50" stroke-linecap="round"/>
<path d="M98.31 306.27C97.63 306.27 97.08 306.12 96.66 305.82C96.24 305.5 96 305.08 95.94 304.56C95.88 304.04 96.02 303.47 96.36 302.85L104.67 287.76V289.35H96.24C95.5 289.35 94.92 289.16 94.5 288.78C94.1 288.4 93.9 287.84 93.9 287.1C93.9 286.36 94.1 285.8 94.5 285.42C94.92 285.04 95.5 284.85 96.24 284.85H107.52C108.26 284.85 108.87 285.05 109.35 285.45C109.85 285.85 110.1 286.42 110.1 287.16C110.1 287.8 110 288.36 109.8 288.84C109.62 289.3 109.39 289.79 109.11 290.31L101.43 304.53C101.11 305.15 100.7 305.6 100.2 305.88C99.72 306.14 99.09 306.27 98.31 306.27ZM119.838 306.33C118.878 306.33 117.868 306.22 116.808 306C115.748 305.78 114.768 305.44 113.868 304.98C113.328 304.7 112.948 304.34 112.728 303.9C112.528 303.44 112.458 302.98 112.518 302.52C112.598 302.06 112.778 301.65 113.058 301.29C113.358 300.93 113.728 300.7 114.168 300.6C114.628 300.48 115.128 300.56 115.668 300.84C116.328 301.16 117.008 301.4 117.708 301.56C118.428 301.72 119.098 301.8 119.718 301.8C120.398 301.8 120.978 301.7 121.458 301.5C121.938 301.3 122.298 301.01 122.538 300.63C122.798 300.25 122.928 299.8 122.928 299.28C122.928 298.48 122.658 297.85 122.118 297.39C121.578 296.93 120.858 296.7 119.958 296.7C119.558 296.7 119.118 296.76 118.638 296.88C118.178 297 117.698 297.23 117.198 297.57C116.978 297.69 116.678 297.83 116.298 297.99C115.918 298.13 115.528 298.2 115.128 298.2C114.408 298.2 113.878 298.03 113.538 297.69C113.198 297.35 113.028 296.87 113.028 296.25V287.19C113.028 286.43 113.228 285.85 113.628 285.45C114.048 285.05 114.628 284.85 115.368 284.85H124.788C125.528 284.85 126.098 285.04 126.498 285.42C126.898 285.8 127.098 286.36 127.098 287.1C127.098 287.82 126.898 288.37 126.498 288.75C126.098 289.13 125.528 289.32 124.788 289.32H118.218V294.03H116.958C117.438 293.47 118.068 293.05 118.848 292.77C119.628 292.47 120.478 292.32 121.398 292.32C122.738 292.32 123.918 292.61 124.938 293.19C125.958 293.75 126.748 294.54 127.308 295.56C127.888 296.58 128.178 297.77 128.178 299.13C128.178 300.57 127.838 301.84 127.158 302.94C126.498 304.02 125.538 304.86 124.278 305.46C123.038 306.04 121.558 306.33 119.838 306.33ZM139.867 305.46C139.607 305.92 139.277 306.22 138.877 306.36C138.477 306.52 138.087 306.55 137.707 306.45C137.327 306.35 136.997 306.16 136.717 305.88C136.437 305.6 136.267 305.25 136.207 304.83C136.147 304.41 136.247 303.97 136.507 303.51L147.007 285.42C147.287 284.94 147.617 284.63 147.997 284.49C148.377 284.33 148.757 284.3 149.137 284.4C149.537 284.5 149.867 284.7 150.127 285C150.407 285.28 150.577 285.63 150.637 286.05C150.717 286.45 150.617 286.88 150.337 287.34L139.867 305.46ZM135.517 297.45C133.717 297.45 132.317 296.86 131.317 295.68C130.337 294.48 129.847 292.9 129.847 290.94C129.847 289.62 130.077 288.48 130.537 287.52C130.997 286.56 131.647 285.82 132.487 285.3C133.327 284.78 134.337 284.52 135.517 284.52C137.297 284.52 138.677 285.11 139.657 286.29C140.657 287.45 141.157 289 141.157 290.94C141.157 292.24 140.927 293.38 140.467 294.36C140.027 295.34 139.387 296.1 138.547 296.64C137.707 297.18 136.697 297.45 135.517 297.45ZM135.517 294.15C135.817 294.15 136.067 294.05 136.267 293.85C136.487 293.63 136.647 293.29 136.747 292.83C136.867 292.35 136.927 291.72 136.927 290.94C136.927 289.76 136.797 288.94 136.537 288.48C136.297 288.02 135.957 287.79 135.517 287.79C135.197 287.79 134.927 287.89 134.707 288.09C134.507 288.27 134.347 288.59 134.227 289.05C134.127 289.51 134.077 290.14 134.077 290.94C134.077 292.14 134.197 292.98 134.437 293.46C134.677 293.92 135.037 294.15 135.517 294.15ZM151.357 306.33C149.577 306.33 148.187 305.74 147.187 304.56C146.207 303.38 145.717 301.81 145.717 299.85C145.717 298.51 145.937 297.36 146.377 296.4C146.837 295.44 147.487 294.7 148.327 294.18C149.187 293.66 150.197 293.4 151.357 293.4C153.137 293.4 154.527 293.99 155.527 295.17C156.527 296.35 157.027 297.91 157.027 299.85C157.027 301.15 156.797 302.29 156.337 303.27C155.897 304.23 155.257 304.98 154.417 305.52C153.577 306.06 152.557 306.33 151.357 306.33ZM151.357 303.06C151.677 303.06 151.937 302.96 152.137 302.76C152.357 302.54 152.517 302.2 152.617 301.74C152.737 301.26 152.797 300.63 152.797 299.85C152.797 298.67 152.667 297.85 152.407 297.39C152.167 296.93 151.817 296.7 151.357 296.7C151.057 296.7 150.797 296.8 150.577 297C150.377 297.18 150.217 297.5 150.097 297.96C149.997 298.4 149.947 299.03 149.947 299.85C149.947 301.05 150.067 301.89 150.307 302.37C150.547 302.83 150.897 303.06 151.357 303.06Z" fill="black"/>
</svg>
