<svg width="250" height="317" viewBox="0 0 250 317" fill="none" xmlns="http://www.w3.org/2000/svg">
<rect x="67" y="276" width="115" height="40" rx="10" fill="#D9D9D9"/>
<mask id="mask0_233_15" style="mask-type:luminance" maskUnits="userSpaceOnUse" x="86" y="81" width="76" height="88">
<path d="M86.1205 81.979H161.901V168.019H86.1205V81.979Z" fill="white"/>
</mask>
<g mask="url(#mask0_233_15)">
<path d="M92.9996 159.39L86.0989 82.0187H161.922L155.016 159.38L123.962 167.981L92.9996 159.39Z" fill="#E44D26"/>
</g>
<path d="M149.101 154.453L155.005 88.3459H124.011V161.408L149.101 154.453Z" fill="#F16529"/>
<path d="M123.978 97.8345H100.207L102.768 126.531H124.01V117.042H111.45L110.582 107.325H124.01V97.8345H123.978ZM124.01 141.655L123.97 141.666L113.398 138.813L112.727 131.245H103.192L104.523 146.144L123.967 151.517L124.01 151.504V141.655Z" fill="#EBEBEB"/>
<path d="M123.978 126.531H135.668L134.593 138.834L124.005 141.69V151.563L143.466 146.171L146.073 117.037H124.011L123.978 126.531ZM147.529 100.381L147.755 97.8345H123.973V107.323H146.9L147.089 105.19L147.529 100.381Z" fill="white"/>
<path d="M225 125C225 144.778 219.135 164.112 208.147 180.557C197.159 197.002 181.541 209.819 163.268 217.388C144.996 224.957 124.889 226.937 105.491 223.079C86.093 219.22 68.2747 209.696 54.2894 195.711C40.3042 181.726 30.7801 163.907 26.9215 144.509C23.063 125.111 25.0433 105.004 32.612 86.7318C40.1807 68.4592 52.9979 52.8413 69.4428 41.8532C85.8877 30.865 105.222 25.0001 125 25" stroke="#F16529" stroke-width="50"/>
<path d="M125 25C146.118 25 166.694 31.6855 183.779 44.0983C200.863 56.5111 213.58 74.014 220.106 94.0983C226.631 114.183 226.631 135.817 220.106 155.902C213.58 175.986 200.863 193.489 183.779 205.902C166.694 218.314 146.118 225 125 225C103.882 225 83.3062 218.314 66.2215 205.902C49.1367 193.489 36.4202 175.986 29.8944 155.902C23.3686 135.817 23.3686 114.183 29.8944 94.0983" stroke="#0D3182" stroke-width="50" stroke-linecap="round"/>
<path d="M101 306.33C99.3 306.33 97.83 306.09 96.59 305.61C95.35 305.11 94.4 304.4 93.74 303.48C93.08 302.56 92.75 301.47 92.75 300.21C92.75 299.19 92.95 298.29 93.35 297.51C93.77 296.73 94.34 296.1 95.06 295.62C95.78 295.12 96.6 294.82 97.52 294.72V295.59C96.28 295.33 95.27 294.72 94.49 293.76C93.71 292.8 93.32 291.65 93.32 290.31C93.32 289.09 93.63 288.05 94.25 287.19C94.87 286.33 95.76 285.67 96.92 285.21C98.08 284.75 99.44 284.52 101 284.52C102.58 284.52 103.94 284.75 105.08 285.21C106.24 285.67 107.13 286.33 107.75 287.19C108.37 288.05 108.68 289.09 108.68 290.31C108.68 291.21 108.5 292.04 108.14 292.8C107.8 293.54 107.32 294.15 106.7 294.63C106.1 295.11 105.4 295.42 104.6 295.56V294.72C105.96 294.92 107.07 295.52 107.93 296.52C108.81 297.5 109.25 298.73 109.25 300.21C109.25 301.47 108.92 302.56 108.26 303.48C107.6 304.4 106.65 305.11 105.41 305.61C104.19 306.09 102.72 306.33 101 306.33ZM101 302.19C102.06 302.19 102.87 301.99 103.43 301.59C103.99 301.17 104.27 300.57 104.27 299.79C104.27 298.99 103.99 298.39 103.43 297.99C102.87 297.59 102.06 297.39 101 297.39C99.94 297.39 99.13 297.59 98.57 297.99C98.01 298.39 97.73 298.99 97.73 299.79C97.73 300.57 98.01 301.17 98.57 301.59C99.13 301.99 99.94 302.19 101 302.19ZM101 293.22C101.58 293.22 102.07 293.13 102.47 292.95C102.87 292.77 103.17 292.51 103.37 292.17C103.59 291.81 103.7 291.4 103.7 290.94C103.7 290.24 103.46 289.69 102.98 289.29C102.5 288.87 101.84 288.66 101 288.66C100.16 288.66 99.5 288.87 99.02 289.29C98.56 289.69 98.33 290.24 98.33 290.94C98.33 291.64 98.56 292.2 99.02 292.62C99.5 293.02 100.16 293.22 101 293.22ZM118.988 306.33C116.388 306.33 114.388 305.38 112.988 303.48C111.608 301.56 110.918 298.85 110.918 295.35C110.918 292.99 111.228 291.01 111.848 289.41C112.468 287.79 113.378 286.57 114.578 285.75C115.778 284.93 117.248 284.52 118.988 284.52C121.608 284.52 123.608 285.44 124.988 287.28C126.368 289.12 127.058 291.8 127.058 295.32C127.058 297.66 126.748 299.65 126.128 301.29C125.508 302.93 124.598 304.18 123.398 305.04C122.198 305.9 120.728 306.33 118.988 306.33ZM118.988 301.95C119.948 301.95 120.658 301.43 121.118 300.39C121.598 299.33 121.838 297.64 121.838 295.32C121.838 293.02 121.598 291.38 121.118 290.4C120.658 289.4 119.948 288.9 118.988 288.9C118.028 288.9 117.308 289.4 116.828 290.4C116.368 291.38 116.138 293.02 116.138 295.32C116.138 297.64 116.368 299.33 116.828 300.39C117.308 301.43 118.028 301.95 118.988 301.95ZM138.867 305.46C138.607 305.92 138.277 306.22 137.877 306.36C137.477 306.52 137.087 306.55 136.707 306.45C136.327 306.35 135.997 306.16 135.717 305.88C135.437 305.6 135.267 305.25 135.207 304.83C135.147 304.41 135.247 303.97 135.507 303.51L146.007 285.42C146.287 284.94 146.617 284.63 146.997 284.49C147.377 284.33 147.757 284.3 148.137 284.4C148.537 284.5 148.867 284.7 149.127 285C149.407 285.28 149.577 285.63 149.637 286.05C149.717 286.45 149.617 286.88 149.337 287.34L138.867 305.46ZM134.517 297.45C132.717 297.45 131.317 296.86 130.317 295.68C129.337 294.48 128.847 292.9 128.847 290.94C128.847 289.62 129.077 288.48 129.537 287.52C129.997 286.56 130.647 285.82 131.487 285.3C132.327 284.78 133.337 284.52 134.517 284.52C136.297 284.52 137.677 285.11 138.657 286.29C139.657 287.45 140.157 289 140.157 290.94C140.157 292.24 139.927 293.38 139.467 294.36C139.027 295.34 138.387 296.1 137.547 296.64C136.707 297.18 135.697 297.45 134.517 297.45ZM134.517 294.15C134.817 294.15 135.067 294.05 135.267 293.85C135.487 293.63 135.647 293.29 135.747 292.83C135.867 292.35 135.927 291.72 135.927 290.94C135.927 289.76 135.797 288.94 135.537 288.48C135.297 288.02 134.957 287.79 134.517 287.79C134.197 287.79 133.927 287.89 133.707 288.09C133.507 288.27 133.347 288.59 133.227 289.05C133.127 289.51 133.077 290.14 133.077 290.94C133.077 292.14 133.197 292.98 133.437 293.46C133.677 293.92 134.037 294.15 134.517 294.15ZM150.357 306.33C148.577 306.33 147.187 305.74 146.187 304.56C145.207 303.38 144.717 301.81 144.717 299.85C144.717 298.51 144.937 297.36 145.377 296.4C145.837 295.44 146.487 294.7 147.327 294.18C148.187 293.66 149.197 293.4 150.357 293.4C152.137 293.4 153.527 293.99 154.527 295.17C155.527 296.35 156.027 297.91 156.027 299.85C156.027 301.15 155.797 302.29 155.337 303.27C154.897 304.23 154.257 304.98 153.417 305.52C152.577 306.06 151.557 306.33 150.357 306.33ZM150.357 303.06C150.677 303.06 150.937 302.96 151.137 302.76C151.357 302.54 151.517 302.2 151.617 301.74C151.737 301.26 151.797 300.63 151.797 299.85C151.797 298.67 151.667 297.85 151.407 297.39C151.167 296.93 150.817 296.7 150.357 296.7C150.057 296.7 149.797 296.8 149.577 297C149.377 297.18 149.217 297.5 149.097 297.96C148.997 298.4 148.947 299.03 148.947 299.85C148.947 301.05 149.067 301.89 149.307 302.37C149.547 302.83 149.897 303.06 150.357 303.06Z" fill="black"/>
</svg>
