<svg width="250" height="317" viewBox="0 0 250 317" fill="none" xmlns="http://www.w3.org/2000/svg">
<rect x="68" y="276" width="115" height="40" rx="10" fill="#D9D9D9"/>
<mask id="mask0_233_29" style="mask-type:luminance" maskUnits="userSpaceOnUse" x="82" y="82" width="86" height="86">
<path d="M82.7557 82.756H167.266V167.266H82.7557V82.756Z" fill="white"/>
</mask>
<g mask="url(#mask0_233_29)">
<path d="M82.7557 82.756H167.266V167.266H82.7557V82.756Z" fill="#FFD600"/>
</g>
<path d="M138.011 146.014C139.636 148.652 141.401 151.18 145.141 151.18C148.282 151.18 149.93 149.619 149.93 147.46C149.93 144.875 148.225 143.957 144.77 142.453L142.875 141.645C137.408 139.326 133.772 136.419 133.772 130.281C133.772 124.623 138.103 120.318 144.871 120.318C149.69 120.318 153.153 121.987 155.65 126.358L149.749 130.13C148.451 127.811 147.047 126.898 144.871 126.898C142.65 126.898 141.244 128.299 141.244 130.13C141.244 132.393 142.652 133.309 145.903 134.71L147.798 135.518C154.242 138.262 157.876 141.065 157.876 147.366C157.876 154.155 152.514 157.876 145.317 157.876C138.276 157.876 134.279 154.343 132.053 149.969L138.011 146.014ZM110.813 146.206C112.001 148.333 113.806 149.969 116.402 149.969C118.886 149.969 120.316 148.988 120.316 145.173V120.316H128.14V146.375C128.14 154.279 123.555 157.876 116.86 157.876C110.811 157.876 106.444 153.777 104.665 149.969L110.813 146.206Z" fill="#000001"/>
<path d="M225 125C225 138.132 222.413 151.136 217.388 163.268C212.362 175.401 204.997 186.425 195.711 195.711C186.425 204.997 175.401 212.362 163.268 217.388C151.136 222.413 138.132 225 125 225C111.868 225 98.8642 222.413 86.7316 217.388C74.5991 212.362 63.5752 204.996 54.2893 195.711C45.0035 186.425 37.6375 175.401 32.6121 163.268C27.5866 151.136 25 138.132 25 125C25 111.868 27.5866 98.8642 32.6121 86.7316C37.6376 74.599 45.0035 63.5751 54.2894 54.2893C63.5752 45.0034 74.5992 37.6375 86.7317 32.612C98.8643 27.5866 111.868 25 125 25C138.132 25 151.136 27.5866 163.268 32.6121C175.401 37.6375 186.425 45.0035 195.711 54.2894C204.997 63.5752 212.363 74.5991 217.388 86.7317C222.413 98.8643 225 111.868 225 125L225 125Z" stroke="#FFD600" stroke-width="50"/>
<path d="M125 25C135.494 25 145.922 26.6517 155.902 29.8944" stroke="#0D3182" stroke-width="50" stroke-linecap="round"/>
<path d="M110.85 306.33C109.89 306.33 108.88 306.22 107.82 306C106.76 305.78 105.78 305.44 104.88 304.98C104.34 304.7 103.96 304.34 103.74 303.9C103.54 303.44 103.47 302.98 103.53 302.52C103.61 302.06 103.79 301.65 104.07 301.29C104.37 300.93 104.74 300.7 105.18 300.6C105.64 300.48 106.14 300.56 106.68 300.84C107.34 301.16 108.02 301.4 108.72 301.56C109.44 301.72 110.11 301.8 110.73 301.8C111.41 301.8 111.99 301.7 112.47 301.5C112.95 301.3 113.31 301.01 113.55 300.63C113.81 300.25 113.94 299.8 113.94 299.28C113.94 298.48 113.67 297.85 113.13 297.39C112.59 296.93 111.87 296.7 110.97 296.7C110.57 296.7 110.13 296.76 109.65 296.88C109.19 297 108.71 297.23 108.21 297.57C107.99 297.69 107.69 297.83 107.31 297.99C106.93 298.13 106.54 298.2 106.14 298.2C105.42 298.2 104.89 298.03 104.55 297.69C104.21 297.35 104.04 296.87 104.04 296.25V287.19C104.04 286.43 104.24 285.85 104.64 285.45C105.06 285.05 105.64 284.85 106.38 284.85H115.8C116.54 284.85 117.11 285.04 117.51 285.42C117.91 285.8 118.11 286.36 118.11 287.1C118.11 287.82 117.91 288.37 117.51 288.75C117.11 289.13 116.54 289.32 115.8 289.32H109.23V294.03H107.97C108.45 293.47 109.08 293.05 109.86 292.77C110.64 292.47 111.49 292.32 112.41 292.32C113.75 292.32 114.93 292.61 115.95 293.19C116.97 293.75 117.76 294.54 118.32 295.56C118.9 296.58 119.19 297.77 119.19 299.13C119.19 300.57 118.85 301.84 118.17 302.94C117.51 304.02 116.55 304.86 115.29 305.46C114.05 306.04 112.57 306.33 110.85 306.33ZM130.878 305.46C130.618 305.92 130.288 306.22 129.888 306.36C129.488 306.52 129.098 306.55 128.718 306.45C128.338 306.35 128.008 306.16 127.728 305.88C127.448 305.6 127.278 305.25 127.218 304.83C127.158 304.41 127.258 303.97 127.518 303.51L138.018 285.42C138.298 284.94 138.628 284.63 139.008 284.49C139.388 284.33 139.768 284.3 140.148 284.4C140.548 284.5 140.878 284.7 141.138 285C141.418 285.28 141.588 285.63 141.648 286.05C141.728 286.45 141.628 286.88 141.348 287.34L130.878 305.46ZM126.528 297.45C124.728 297.45 123.328 296.86 122.328 295.68C121.348 294.48 120.858 292.9 120.858 290.94C120.858 289.62 121.088 288.48 121.548 287.52C122.008 286.56 122.658 285.82 123.498 285.3C124.338 284.78 125.348 284.52 126.528 284.52C128.308 284.52 129.688 285.11 130.668 286.29C131.668 287.45 132.168 289 132.168 290.94C132.168 292.24 131.938 293.38 131.478 294.36C131.038 295.34 130.398 296.1 129.558 296.64C128.718 297.18 127.708 297.45 126.528 297.45ZM126.528 294.15C126.828 294.15 127.078 294.05 127.278 293.85C127.498 293.63 127.658 293.29 127.758 292.83C127.878 292.35 127.938 291.72 127.938 290.94C127.938 289.76 127.808 288.94 127.548 288.48C127.308 288.02 126.968 287.79 126.528 287.79C126.208 287.79 125.938 287.89 125.718 288.09C125.518 288.27 125.358 288.59 125.238 289.05C125.138 289.51 125.088 290.14 125.088 290.94C125.088 292.14 125.208 292.98 125.448 293.46C125.688 293.92 126.048 294.15 126.528 294.15ZM142.368 306.33C140.588 306.33 139.198 305.74 138.198 304.56C137.218 303.38 136.728 301.81 136.728 299.85C136.728 298.51 136.948 297.36 137.388 296.4C137.848 295.44 138.498 294.7 139.338 294.18C140.198 293.66 141.208 293.4 142.368 293.4C144.148 293.4 145.538 293.99 146.538 295.17C147.538 296.35 148.038 297.91 148.038 299.85C148.038 301.15 147.808 302.29 147.348 303.27C146.908 304.23 146.268 304.98 145.428 305.52C144.588 306.06 143.568 306.33 142.368 306.33ZM142.368 303.06C142.688 303.06 142.948 302.96 143.148 302.76C143.368 302.54 143.528 302.2 143.628 301.74C143.748 301.26 143.808 300.63 143.808 299.85C143.808 298.67 143.678 297.85 143.418 297.39C143.178 296.93 142.828 296.7 142.368 296.7C142.068 296.7 141.808 296.8 141.588 297C141.388 297.18 141.228 297.5 141.108 297.96C141.008 298.4 140.958 299.03 140.958 299.85C140.958 301.05 141.078 301.89 141.318 302.37C141.558 302.83 141.908 303.06 142.368 303.06Z" fill="black"/>
</svg>
