<svg width="850" height="317" viewBox="0 0 850 317" fill="none" xmlns="http://www.w3.org/2000/svg">
<rect x="67" y="276" width="115" height="40" rx="10" fill="#D9D9D9"/>
<mask id="mask0_233_58" style="mask-type:luminance" maskUnits="userSpaceOnUse" x="86" y="81" width="76" height="88">
<path d="M86.1205 81.979H161.901V168.019H86.1205V81.979Z" fill="white"/>
</mask>
<g mask="url(#mask0_233_58)">
<path d="M92.9996 159.39L86.0989 82.0187H161.922L155.016 159.38L123.962 167.981L92.9996 159.39Z" fill="#E44D26"/>
</g>
<path d="M149.101 154.453L155.005 88.3459H124.011V161.408L149.101 154.453Z" fill="#F16529"/>
<path d="M123.978 97.8345H100.207L102.768 126.531H124.01V117.042H111.45L110.582 107.325H124.01V97.8345H123.978ZM124.01 141.655L123.97 141.666L113.398 138.813L112.727 131.245H103.192L104.523 146.144L123.967 151.517L124.01 151.504V141.655Z" fill="#EBEBEB"/>
<path d="M123.978 126.531H135.668L134.593 138.834L124.005 141.69V151.563L143.466 146.171L146.073 117.037H124.011L123.978 126.531ZM147.529 100.381L147.755 97.8345H123.973V107.323H146.9L147.089 105.19L147.529 100.381Z" fill="white"/>
<path d="M225 125C225 144.778 219.135 164.112 208.147 180.557C197.159 197.002 181.541 209.819 163.268 217.388C144.996 224.957 124.889 226.937 105.491 223.079C86.093 219.22 68.2747 209.696 54.2894 195.711C40.3042 181.726 30.7801 163.907 26.9215 144.509C23.063 125.111 25.0433 105.004 32.612 86.7318C40.1807 68.4592 52.9979 52.8413 69.4428 41.8532C85.8877 30.865 105.222 25.0001 125 25" stroke="#F16529" stroke-width="50"/>
<path d="M125 25C146.118 25 166.694 31.6855 183.779 44.0983C200.863 56.5111 213.58 74.014 220.106 94.0983C226.631 114.183 226.631 135.817 220.106 155.902C213.58 175.986 200.863 193.489 183.779 205.902C166.694 218.314 146.118 225 125 225C103.882 225 83.3062 218.314 66.2215 205.902C49.1367 193.489 36.4202 175.986 29.8944 155.902C23.3686 135.817 23.3686 114.183 29.8944 94.0983" stroke="#0D3182" stroke-width="50" stroke-linecap="round"/>
<path d="M101 306.33C99.3 306.33 97.83 306.09 96.59 305.61C95.35 305.11 94.4 304.4 93.74 303.48C93.08 302.56 92.75 301.47 92.75 300.21C92.75 299.19 92.95 298.29 93.35 297.51C93.77 296.73 94.34 296.1 95.06 295.62C95.78 295.12 96.6 294.82 97.52 294.72V295.59C96.28 295.33 95.27 294.72 94.49 293.76C93.71 292.8 93.32 291.65 93.32 290.31C93.32 289.09 93.63 288.05 94.25 287.19C94.87 286.33 95.76 285.67 96.92 285.21C98.08 284.75 99.44 284.52 101 284.52C102.58 284.52 103.94 284.75 105.08 285.21C106.24 285.67 107.13 286.33 107.75 287.19C108.37 288.05 108.68 289.09 108.68 290.31C108.68 291.21 108.5 292.04 108.14 292.8C107.8 293.54 107.32 294.15 106.7 294.63C106.1 295.11 105.4 295.42 104.6 295.56V294.72C105.96 294.92 107.07 295.52 107.93 296.52C108.81 297.5 109.25 298.73 109.25 300.21C109.25 301.47 108.92 302.56 108.26 303.48C107.6 304.4 106.65 305.11 105.41 305.61C104.19 306.09 102.72 306.33 101 306.33ZM101 302.19C102.06 302.19 102.87 301.99 103.43 301.59C103.99 301.17 104.27 300.57 104.27 299.79C104.27 298.99 103.99 298.39 103.43 297.99C102.87 297.59 102.06 297.39 101 297.39C99.94 297.39 99.13 297.59 98.57 297.99C98.01 298.39 97.73 298.99 97.73 299.79C97.73 300.57 98.01 301.17 98.57 301.59C99.13 301.99 99.94 302.19 101 302.19ZM101 293.22C101.58 293.22 102.07 293.13 102.47 292.95C102.87 292.77 103.17 292.51 103.37 292.17C103.59 291.81 103.7 291.4 103.7 290.94C103.7 290.24 103.46 289.69 102.98 289.29C102.5 288.87 101.84 288.66 101 288.66C100.16 288.66 99.5 288.87 99.02 289.29C98.56 289.69 98.33 290.24 98.33 290.94C98.33 291.64 98.56 292.2 99.02 292.62C99.5 293.02 100.16 293.22 101 293.22ZM118.988 306.33C116.388 306.33 114.388 305.38 112.988 303.48C111.608 301.56 110.918 298.85 110.918 295.35C110.918 292.99 111.228 291.01 111.848 289.41C112.468 287.79 113.378 286.57 114.578 285.75C115.778 284.93 117.248 284.52 118.988 284.52C121.608 284.52 123.608 285.44 124.988 287.28C126.368 289.12 127.058 291.8 127.058 295.32C127.058 297.66 126.748 299.65 126.128 301.29C125.508 302.93 124.598 304.18 123.398 305.04C122.198 305.9 120.728 306.33 118.988 306.33ZM118.988 301.95C119.948 301.95 120.658 301.43 121.118 300.39C121.598 299.33 121.838 297.64 121.838 295.32C121.838 293.02 121.598 291.38 121.118 290.4C120.658 289.4 119.948 288.9 118.988 288.9C118.028 288.9 117.308 289.4 116.828 290.4C116.368 291.38 116.138 293.02 116.138 295.32C116.138 297.64 116.368 299.33 116.828 300.39C117.308 301.43 118.028 301.95 118.988 301.95ZM138.867 305.46C138.607 305.92 138.277 306.22 137.877 306.36C137.477 306.52 137.087 306.55 136.707 306.45C136.327 306.35 135.997 306.16 135.717 305.88C135.437 305.6 135.267 305.25 135.207 304.83C135.147 304.41 135.247 303.97 135.507 303.51L146.007 285.42C146.287 284.94 146.617 284.63 146.997 284.49C147.377 284.33 147.757 284.3 148.137 284.4C148.537 284.5 148.867 284.7 149.127 285C149.407 285.28 149.577 285.63 149.637 286.05C149.717 286.45 149.617 286.88 149.337 287.34L138.867 305.46ZM134.517 297.45C132.717 297.45 131.317 296.86 130.317 295.68C129.337 294.48 128.847 292.9 128.847 290.94C128.847 289.62 129.077 288.48 129.537 287.52C129.997 286.56 130.647 285.82 131.487 285.3C132.327 284.78 133.337 284.52 134.517 284.52C136.297 284.52 137.677 285.11 138.657 286.29C139.657 287.45 140.157 289 140.157 290.94C140.157 292.24 139.927 293.38 139.467 294.36C139.027 295.34 138.387 296.1 137.547 296.64C136.707 297.18 135.697 297.45 134.517 297.45ZM134.517 294.15C134.817 294.15 135.067 294.05 135.267 293.85C135.487 293.63 135.647 293.29 135.747 292.83C135.867 292.35 135.927 291.72 135.927 290.94C135.927 289.76 135.797 288.94 135.537 288.48C135.297 288.02 134.957 287.79 134.517 287.79C134.197 287.79 133.927 287.89 133.707 288.09C133.507 288.27 133.347 288.59 133.227 289.05C133.127 289.51 133.077 290.14 133.077 290.94C133.077 292.14 133.197 292.98 133.437 293.46C133.677 293.92 134.037 294.15 134.517 294.15ZM150.357 306.33C148.577 306.33 147.187 305.74 146.187 304.56C145.207 303.38 144.717 301.81 144.717 299.85C144.717 298.51 144.937 297.36 145.377 296.4C145.837 295.44 146.487 294.7 147.327 294.18C148.187 293.66 149.197 293.4 150.357 293.4C152.137 293.4 153.527 293.99 154.527 295.17C155.527 296.35 156.027 297.91 156.027 299.85C156.027 301.15 155.797 302.29 155.337 303.27C154.897 304.23 154.257 304.98 153.417 305.52C152.577 306.06 151.557 306.33 150.357 306.33ZM150.357 303.06C150.677 303.06 150.937 302.96 151.137 302.76C151.357 302.54 151.517 302.2 151.617 301.74C151.737 301.26 151.797 300.63 151.797 299.85C151.797 298.67 151.667 297.85 151.407 297.39C151.167 296.93 150.817 296.7 150.357 296.7C150.057 296.7 149.797 296.8 149.577 297C149.377 297.18 149.217 297.5 149.097 297.96C148.997 298.4 148.947 299.03 148.947 299.85C148.947 301.05 149.067 301.89 149.307 302.37C149.547 302.83 149.897 303.06 150.357 303.06Z" fill="black"/>
<rect x="367" y="276" width="115" height="40" rx="10" fill="#D9D9D9"/>
<mask id="mask1_233_58" style="mask-type:luminance" maskUnits="userSpaceOnUse" x="386" y="86" width="78" height="78">
<path d="M386.79 86.0938H463.2V163.555H386.79V86.0938Z" fill="white"/>
</mask>
<g mask="url(#mask1_233_58)">
<path d="M463.189 86.0936H386.802L393.542 155.401L424.995 163.554L456.449 155.401L463.189 86.0936Z" fill="#0277BD"/>
</g>
<path d="M424.996 92.2104V157.237L450.159 150.714L455.776 92.2104H424.996Z" fill="#039BE5"/>
<path d="M445.441 102.402H424.996V110.556H436.005L435.331 118.71H424.996V126.864H434.881L434.207 136.037L424.996 138.89V147.452L442.745 142.152L444.317 118.71L445.441 102.402Z" fill="white"/>
<path d="M424.996 102.402V110.556H405.001L404.326 102.402H424.996ZM414.661 118.71L415.111 126.864H424.996V118.71H414.661ZM415.56 130.94H406.573L407.247 142.152L424.996 147.452V138.89L415.785 136.037L415.56 130.94Z" fill="#EEEEEE"/>
<path d="M525 125C525 144.778 519.135 164.112 508.147 180.557C497.159 197.002 481.541 209.819 463.268 217.388C444.996 224.957 424.889 226.937 405.491 223.079C386.093 219.22 368.275 209.696 354.289 195.711C340.304 181.726 330.78 163.907 326.922 144.509C323.063 125.111 325.043 105.004 332.612 86.7318C340.181 68.4592 352.998 52.8413 369.443 41.8532C385.888 30.865 405.222 25.0001 425 25" stroke="#039BE5" stroke-width="50"/>
<path d="M425 25C444.778 25 464.112 30.8649 480.557 41.853C497.002 52.8412 509.819 68.459 517.388 86.7316C524.957 105.004 526.937 125.111 523.079 144.509C519.22 163.907 509.696 181.725 495.711 195.711C481.725 209.696 463.907 219.22 444.509 223.078C425.111 226.937 405.004 224.957 386.732 217.388C368.459 209.819 352.841 197.002 341.853 180.557C330.865 164.112 325 144.778 325 125" stroke="#0D3182" stroke-width="50" stroke-linecap="round"/>
<path d="M398.31 306.27C397.63 306.27 397.08 306.12 396.66 305.82C396.24 305.5 396 305.08 395.94 304.56C395.88 304.04 396.02 303.47 396.36 302.85L404.67 287.76V289.35H396.24C395.5 289.35 394.92 289.16 394.5 288.78C394.1 288.4 393.9 287.84 393.9 287.1C393.9 286.36 394.1 285.8 394.5 285.42C394.92 285.04 395.5 284.85 396.24 284.85H407.52C408.26 284.85 408.87 285.05 409.35 285.45C409.85 285.85 410.1 286.42 410.1 287.16C410.1 287.8 410 288.36 409.8 288.84C409.62 289.3 409.39 289.79 409.11 290.31L401.43 304.53C401.11 305.15 400.7 305.6 400.2 305.88C399.72 306.14 399.09 306.27 398.31 306.27ZM419.838 306.33C418.878 306.33 417.868 306.22 416.808 306C415.748 305.78 414.768 305.44 413.868 304.98C413.328 304.7 412.948 304.34 412.728 303.9C412.528 303.44 412.458 302.98 412.518 302.52C412.598 302.06 412.778 301.65 413.058 301.29C413.358 300.93 413.728 300.7 414.168 300.6C414.628 300.48 415.128 300.56 415.668 300.84C416.328 301.16 417.008 301.4 417.708 301.56C418.428 301.72 419.098 301.8 419.718 301.8C420.398 301.8 420.978 301.7 421.458 301.5C421.938 301.3 422.298 301.01 422.538 300.63C422.798 300.25 422.928 299.8 422.928 299.28C422.928 298.48 422.658 297.85 422.118 297.39C421.578 296.93 420.858 296.7 419.958 296.7C419.558 296.7 419.118 296.76 418.638 296.88C418.178 297 417.698 297.23 417.198 297.57C416.978 297.69 416.678 297.83 416.298 297.99C415.918 298.13 415.528 298.2 415.128 298.2C414.408 298.2 413.878 298.03 413.538 297.69C413.198 297.35 413.028 296.87 413.028 296.25V287.19C413.028 286.43 413.228 285.85 413.628 285.45C414.048 285.05 414.628 284.85 415.368 284.85H424.788C425.528 284.85 426.098 285.04 426.498 285.42C426.898 285.8 427.098 286.36 427.098 287.1C427.098 287.82 426.898 288.37 426.498 288.75C426.098 289.13 425.528 289.32 424.788 289.32H418.218V294.03H416.958C417.438 293.47 418.068 293.05 418.848 292.77C419.628 292.47 420.478 292.32 421.398 292.32C422.738 292.32 423.918 292.61 424.938 293.19C425.958 293.75 426.748 294.54 427.308 295.56C427.888 296.58 428.178 297.77 428.178 299.13C428.178 300.57 427.838 301.84 427.158 302.94C426.498 304.02 425.538 304.86 424.278 305.46C423.038 306.04 421.558 306.33 419.838 306.33ZM439.867 305.46C439.607 305.92 439.277 306.22 438.877 306.36C438.477 306.52 438.087 306.55 437.707 306.45C437.327 306.35 436.997 306.16 436.717 305.88C436.437 305.6 436.267 305.25 436.207 304.83C436.147 304.41 436.247 303.97 436.507 303.51L447.007 285.42C447.287 284.94 447.617 284.63 447.997 284.49C448.377 284.33 448.757 284.3 449.137 284.4C449.537 284.5 449.867 284.7 450.127 285C450.407 285.28 450.577 285.63 450.637 286.05C450.717 286.45 450.617 286.88 450.337 287.34L439.867 305.46ZM435.517 297.45C433.717 297.45 432.317 296.86 431.317 295.68C430.337 294.48 429.847 292.9 429.847 290.94C429.847 289.62 430.077 288.48 430.537 287.52C430.997 286.56 431.647 285.82 432.487 285.3C433.327 284.78 434.337 284.52 435.517 284.52C437.297 284.52 438.677 285.11 439.657 286.29C440.657 287.45 441.157 289 441.157 290.94C441.157 292.24 440.927 293.38 440.467 294.36C440.027 295.34 439.387 296.1 438.547 296.64C437.707 297.18 436.697 297.45 435.517 297.45ZM435.517 294.15C435.817 294.15 436.067 294.05 436.267 293.85C436.487 293.63 436.647 293.29 436.747 292.83C436.867 292.35 436.927 291.72 436.927 290.94C436.927 289.76 436.797 288.94 436.537 288.48C436.297 288.02 435.957 287.79 435.517 287.79C435.197 287.79 434.927 287.89 434.707 288.09C434.507 288.27 434.347 288.59 434.227 289.05C434.127 289.51 434.077 290.14 434.077 290.94C434.077 292.14 434.197 292.98 434.437 293.46C434.677 293.92 435.037 294.15 435.517 294.15ZM451.357 306.33C449.577 306.33 448.187 305.74 447.187 304.56C446.207 303.38 445.717 301.81 445.717 299.85C445.717 298.51 445.937 297.36 446.377 296.4C446.837 295.44 447.487 294.7 448.327 294.18C449.187 293.66 450.197 293.4 451.357 293.4C453.137 293.4 454.527 293.99 455.527 295.17C456.527 296.35 457.027 297.91 457.027 299.85C457.027 301.15 456.797 302.29 456.337 303.27C455.897 304.23 455.257 304.98 454.417 305.52C453.577 306.06 452.557 306.33 451.357 306.33ZM451.357 303.06C451.677 303.06 451.937 302.96 452.137 302.76C452.357 302.54 452.517 302.2 452.617 301.74C452.737 301.26 452.797 300.63 452.797 299.85C452.797 298.67 452.667 297.85 452.407 297.39C452.167 296.93 451.817 296.7 451.357 296.7C451.057 296.7 450.797 296.8 450.577 297C450.377 297.18 450.217 297.5 450.097 297.96C449.997 298.4 449.947 299.03 449.947 299.85C449.947 301.05 450.067 301.89 450.307 302.37C450.547 302.83 450.897 303.06 451.357 303.06Z" fill="black"/>
<rect x="668" y="276" width="115" height="40" rx="10" fill="#D9D9D9"/>
<mask id="mask2_233_58" style="mask-type:luminance" maskUnits="userSpaceOnUse" x="682" y="82" width="86" height="86">
<path d="M682.756 82.756H767.266V167.266H682.756V82.756Z" fill="white"/>
</mask>
<g mask="url(#mask2_233_58)">
<path d="M682.756 82.756H767.266V167.266H682.756V82.756Z" fill="#FFD600"/>
</g>
<path d="M738.011 146.014C739.636 148.652 741.401 151.18 745.141 151.18C748.282 151.18 749.93 149.619 749.93 147.46C749.93 144.875 748.225 143.957 744.77 142.453L742.875 141.645C737.408 139.326 733.772 136.419 733.772 130.281C733.772 124.623 738.103 120.318 744.871 120.318C749.69 120.318 753.153 121.987 755.65 126.358L749.749 130.13C748.451 127.811 747.047 126.898 744.871 126.898C742.65 126.898 741.244 128.299 741.244 130.13C741.244 132.393 742.652 133.309 745.903 134.71L747.798 135.518C754.242 138.262 757.876 141.065 757.876 147.366C757.876 154.155 752.514 157.876 745.317 157.876C738.276 157.876 734.279 154.343 732.053 149.969L738.011 146.014ZM710.813 146.206C712.001 148.333 713.806 149.969 716.402 149.969C718.886 149.969 720.316 148.988 720.316 145.173V120.316H728.14V146.375C728.14 154.279 723.555 157.876 716.86 157.876C710.811 157.876 706.444 153.777 704.665 149.969L710.813 146.206Z" fill="#000001"/>
<path d="M825 125C825 138.132 822.413 151.136 817.388 163.268C812.362 175.401 804.997 186.425 795.711 195.711C786.425 204.997 775.401 212.362 763.268 217.388C751.136 222.413 738.132 225 725 225C711.868 225 698.864 222.413 686.732 217.388C674.599 212.362 663.575 204.996 654.289 195.711C645.003 186.425 637.638 175.401 632.612 163.268C627.587 151.136 625 138.132 625 125C625 111.868 627.587 98.8642 632.612 86.7316C637.638 74.599 645.004 63.5751 654.289 54.2893C663.575 45.0034 674.599 37.6375 686.732 32.612C698.864 27.5866 711.868 25 725 25C738.132 25 751.136 27.5866 763.268 32.6121C775.401 37.6375 786.425 45.0035 795.711 54.2894C804.997 63.5752 812.363 74.5991 817.388 86.7317C822.413 98.8643 825 111.868 825 125L825 125Z" stroke="#FFD600" stroke-width="50"/>
<path d="M725 25C735.494 25 745.922 26.6517 755.902 29.8944" stroke="#0D3182" stroke-width="50" stroke-linecap="round"/>
<path d="M710.85 306.33C709.89 306.33 708.88 306.22 707.82 306C706.76 305.78 705.78 305.44 704.88 304.98C704.34 304.7 703.96 304.34 703.74 303.9C703.54 303.44 703.47 302.98 703.53 302.52C703.61 302.06 703.79 301.65 704.07 301.29C704.37 300.93 704.74 300.7 705.18 300.6C705.64 300.48 706.14 300.56 706.68 300.84C707.34 301.16 708.02 301.4 708.72 301.56C709.44 301.72 710.11 301.8 710.73 301.8C711.41 301.8 711.99 301.7 712.47 301.5C712.95 301.3 713.31 301.01 713.55 300.63C713.81 300.25 713.94 299.8 713.94 299.28C713.94 298.48 713.67 297.85 713.13 297.39C712.59 296.93 711.87 296.7 710.97 296.7C710.57 296.7 710.13 296.76 709.65 296.88C709.19 297 708.71 297.23 708.21 297.57C707.99 297.69 707.69 297.83 707.31 297.99C706.93 298.13 706.54 298.2 706.14 298.2C705.42 298.2 704.89 298.03 704.55 297.69C704.21 297.35 704.04 296.87 704.04 296.25V287.19C704.04 286.43 704.24 285.85 704.64 285.45C705.06 285.05 705.64 284.85 706.38 284.85H715.8C716.54 284.85 717.11 285.04 717.51 285.42C717.91 285.8 718.11 286.36 718.11 287.1C718.11 287.82 717.91 288.37 717.51 288.75C717.11 289.13 716.54 289.32 715.8 289.32H709.23V294.03H707.97C708.45 293.47 709.08 293.05 709.86 292.77C710.64 292.47 711.49 292.32 712.41 292.32C713.75 292.32 714.93 292.61 715.95 293.19C716.97 293.75 717.76 294.54 718.32 295.56C718.9 296.58 719.19 297.77 719.19 299.13C719.19 300.57 718.85 301.84 718.17 302.94C717.51 304.02 716.55 304.86 715.29 305.46C714.05 306.04 712.57 306.33 710.85 306.33ZM730.878 305.46C730.618 305.92 730.288 306.22 729.888 306.36C729.488 306.52 729.098 306.55 728.718 306.45C728.338 306.35 728.008 306.16 727.728 305.88C727.448 305.6 727.278 305.25 727.218 304.83C727.158 304.41 727.258 303.97 727.518 303.51L738.018 285.42C738.298 284.94 738.628 284.63 739.008 284.49C739.388 284.33 739.768 284.3 740.148 284.4C740.548 284.5 740.878 284.7 741.138 285C741.418 285.28 741.588 285.63 741.648 286.05C741.728 286.45 741.628 286.88 741.348 287.34L730.878 305.46ZM726.528 297.45C724.728 297.45 723.328 296.86 722.328 295.68C721.348 294.48 720.858 292.9 720.858 290.94C720.858 289.62 721.088 288.48 721.548 287.52C722.008 286.56 722.658 285.82 723.498 285.3C724.338 284.78 725.348 284.52 726.528 284.52C728.308 284.52 729.688 285.11 730.668 286.29C731.668 287.45 732.168 289 732.168 290.94C732.168 292.24 731.938 293.38 731.478 294.36C731.038 295.34 730.398 296.1 729.558 296.64C728.718 297.18 727.708 297.45 726.528 297.45ZM726.528 294.15C726.828 294.15 727.078 294.05 727.278 293.85C727.498 293.63 727.658 293.29 727.758 292.83C727.878 292.35 727.938 291.72 727.938 290.94C727.938 289.76 727.808 288.94 727.548 288.48C727.308 288.02 726.968 287.79 726.528 287.79C726.208 287.79 725.938 287.89 725.718 288.09C725.518 288.27 725.358 288.59 725.238 289.05C725.138 289.51 725.088 290.14 725.088 290.94C725.088 292.14 725.208 292.98 725.448 293.46C725.688 293.92 726.048 294.15 726.528 294.15ZM742.368 306.33C740.588 306.33 739.198 305.74 738.198 304.56C737.218 303.38 736.728 301.81 736.728 299.85C736.728 298.51 736.948 297.36 737.388 296.4C737.848 295.44 738.498 294.7 739.338 294.18C740.198 293.66 741.208 293.4 742.368 293.4C744.148 293.4 745.538 293.99 746.538 295.17C747.538 296.35 748.038 297.91 748.038 299.85C748.038 301.15 747.808 302.29 747.348 303.27C746.908 304.23 746.268 304.98 745.428 305.52C744.588 306.06 743.568 306.33 742.368 306.33ZM742.368 303.06C742.688 303.06 742.948 302.96 743.148 302.76C743.368 302.54 743.528 302.2 743.628 301.74C743.748 301.26 743.808 300.63 743.808 299.85C743.808 298.67 743.678 297.85 743.418 297.39C743.178 296.93 742.828 296.7 742.368 296.7C742.068 296.7 741.808 296.8 741.588 297C741.388 297.18 741.228 297.5 741.108 297.96C741.008 298.4 740.958 299.03 740.958 299.85C740.958 301.05 741.078 301.89 741.318 302.37C741.558 302.83 741.908 303.06 742.368 303.06Z" fill="black"/>
</svg>
