<svg width="1920" height="218" viewBox="0 0 1920 218" fill="none" xmlns="http://www.w3.org/2000/svg">
<path fill-rule="evenodd" clip-rule="evenodd" d="M0 0L80 26.875C160 53.75 320 107.5 480 111.979C640 116.458 800 71.6667 960 71.6667C1120 71.6667 1280 116.458 1440 125.417C1600 134.375 1760 107.5 1840 94.0625L1920 80.625V215H1840C1760 215 1600 215 1440 215C1280 215 1120 215 960 215C800 215 640 215 480 215C320 215 160 215 80 215H0V0Z" fill="#1B63AC"/>
<path fill-rule="evenodd" clip-rule="evenodd" d="M0 201L80 191.748C160 182.496 320 163.504 480 140.13C640 116.757 800 89 960 98.2522C1120 107.504 1280 154.252 1440 159.122C1600 163.504 1760 126.009 1840 107.504L1920 89V201H1840C1760 201 1600 201 1440 201C1280 201 1120 201 960 201C800 201 640 201 480 201C320 201 160 201 80 201H0Z" fill="#36C5FE"/>
<path fill-rule="evenodd" clip-rule="evenodd" d="M0 174.917L53 172.676C107 170.185 213 165.454 320 153.5C427 141.546 533 122.371 640 119.88C747 117.639 853 131.834 960 136.815C1067 141.546 1173 136.815 1280 136.815C1387 136.815 1493 141.546 1600 134.324C1707 127.102 1813 107.927 1867 98.4633L1920 89V218H1867C1813 218 1707 218 1600 218C1493 218 1387 218 1280 218C1173 218 1067 218 960 218C853 218 747 218 640 218C533 218 427 218 320 218C213 218 107 218 53 218H0V174.917Z" fill="#0D3182"/>
</svg>
