<svg width="1920" height="134" viewBox="0 0 1920 134" fill="none" xmlns="http://www.w3.org/2000/svg">
<path fill-rule="evenodd" clip-rule="evenodd" d="M0 114.802L64 102.046C128 89.2904 256 63.7789 384 63.7789C512 63.7789 640 89.2904 768 108.424C896 127.558 1024 140.314 1152 130.747C1280 121.18 1408 89.2904 1536 86.1015C1664 82.9125 1792 108.424 1856 121.18L1920 133.936V0H1856C1792 0 1664 0 1536 0C1408 0 1280 0 1152 0C1024 0 896 0 768 0C640 0 512 0 384 0C256 0 128 0 64 0H0V114.802Z" fill="#1B63AC"/>
<path fill-rule="evenodd" clip-rule="evenodd" d="M0 127.154L64 129.803C128 132.452 256 137.75 384 129.803C512 121.856 640 100.663 768 90.0672C896 79.4711 1024 79.4711 1152 90.0672C1280 100.663 1408 121.856 1536 124.505C1664 127.154 1792 111.259 1856 103.312L1920 95.3653V0H1856C1792 0 1664 0 1536 0C1408 0 1280 0 1152 0C1024 0 896 0 768 0C640 0 512 0 384 0C256 0 128 0 64 0H0V127.154Z" fill="#36C5FE"/>
<path fill-rule="evenodd" clip-rule="evenodd" d="M0 48.1328H46.4C91.2 48.1328 182.4 48.1328 273.6 58.829C366.4 69.5252 457.6 90.9176 548.8 104.288C640 117.658 731.2 123.006 822.4 112.31C913.6 101.614 1006.4 74.8733 1097.6 69.5252C1188.8 64.1771 1280 80.2214 1371.2 88.2435C1462.4 96.2656 1553.6 96.2656 1646.4 88.2435C1737.6 80.2214 1828.8 64.1771 1873.6 56.155L1920 48.1328V0H1873.6C1828.8 0 1737.6 0 1646.4 0C1553.6 0 1462.4 0 1371.2 0C1280 0 1188.8 0 1097.6 0C1006.4 0 913.6 0 822.4 0C731.2 0 640 0 548.8 0C457.6 0 366.4 0 273.6 0C182.4 0 91.2 0 46.4 0H0V48.1328Z" fill="#0D3182"/>
</svg>
